<?xml version="1.0" encoding="UTF-8" standalone="no"?>
<!-- Created with Inkscape (http://www.inkscape.org/) -->

<svg
   width="210mm"
   height="297mm"
   viewBox="0 0 210 297"
   version="1.1"
   id="svg1"
   inkscape:version="1.3.2 (091e20e, 2023-11-25, custom)"
   sodipodi:docname="edit-page.svg"
   inkscape:export-filename="edit-page.png"
   inkscape:export-xdpi="15.39"
   inkscape:export-ydpi="15.39"
   xmlns:inkscape="http://www.inkscape.org/namespaces/inkscape"
   xmlns:sodipodi="http://sodipodi.sourceforge.net/DTD/sodipodi-0.dtd"
   xmlns="http://www.w3.org/2000/svg"
   xmlns:svg="http://www.w3.org/2000/svg">
  <sodipodi:namedview
     id="namedview1"
     pagecolor="#599697"
     bordercolor="#000000"
     borderopacity="0.25"
     inkscape:showpageshadow="2"
     inkscape:pageopacity="0.0"
     inkscape:pagecheckerboard="0"
     inkscape:deskcolor="#d1d1d1"
     inkscape:document-units="mm"
     inkscape:zoom="1.95"
     inkscape:cx="252.82051"
     inkscape:cy="374.61538"
     inkscape:window-width="2400"
     inkscape:window-height="1411"
     inkscape:window-x="2391"
     inkscape:window-y="-9"
     inkscape:window-maximized="1"
     inkscape:current-layer="layer1" />
  <defs
     id="defs1" />
  <g
     inkscape:label="Ebene 1"
     inkscape:groupmode="layer"
     id="layer1">
    <g
       id="g78">
      <path
         id="rect1-3-5"
         style="fill:#ffffff;stroke-width:0.295391"
         d="M 119.99962,54 V 40 H 39.999827 v 14 z m -2.00038,-2.799855 H 41.999701 v -8.40029 h 75.999539 z" />
      <path
         style="fill:#ffffff;stroke-width:0.264583"
         d="m 42.38213,47.406813 c 0.896236,-0.502263 1.787768,-1.06849 2.621574,-1.674894 0.479493,-0.348724 0.869293,-0.849948 1.237966,-1.310788 0.124535,-0.155668 0.255326,-0.400788 0.436928,-0.509749 0.06582,-0.03949 0.154596,-0.03025 0.218467,-0.07282 0.02019,-0.01347 0,-0.04855 0,-0.07282 0.04855,-0.02426 0.09415,-0.05566 0.145642,-0.07282 0.118721,-0.03957 0.132871,0.377328 0.145643,0.436931 0.1617,0.754605 0.228589,0.761963 0.43693,1.45643 0.07953,0.265092 0.113085,0.545119 0.218464,0.801037 0.06665,0.161856 0.213005,0.280368 0.291285,0.436928 0.06866,0.137313 0.07213,0.302154 0.145642,0.43693 0.190643,0.349509 0.513609,0.611354 0.728216,0.946679 0.258074,0.403244 0.458515,0.842407 0.728215,1.237967 0.09669,0.141814 0.264343,0.224435 0.364109,0.364106 0.287155,0.402019 0.454205,0.899771 0.728215,1.310788 0.0819,0.12286 0.455483,0.643491 0.582573,0.728216 0.047,0.03133 0.259747,0.114104 0.291285,0.145642 0.0601,0.0601 -0.122139,0.279535 0.145643,0.145645 0.04613,-0.02307 0.05983,-0.254915 0.07282,-0.291287 0.227428,-0.636797 0.473713,-1.266891 0.728215,-1.893359 0.684051,-1.683816 1.483609,-3.357477 2.475934,-4.879043 0.239046,-0.366541 0.494538,-0.722334 0.728213,-1.092322 0.05797,-0.09178 0.07416,-0.20959 0.145645,-0.291288 0.280644,-0.320735 0.812916,-0.521631 1.092322,-0.801036 0.03838,-0.03838 0.03444,-0.107262 0.07282,-0.145643 0.05428,-0.05428 0.145643,-0.04855 0.218466,-0.07282 0.343652,-0.114551 0.210098,0.671335 0.218464,0.728215 0.09698,0.659445 0.248272,1.309786 0.364107,1.96618 0.01897,0.107577 0.138112,1.011973 0.145642,1.019503 0.134059,0.134056 0.297622,-0.235516 0.43693,-0.364109 0.189606,-0.175019 0.400114,-0.327292 0.582573,-0.509749 0.05428,-0.05428 0.01855,-0.164187 0.07282,-0.218466 0.04855,-0.04855 0.2143,-0.145643 0.145643,-0.145643 -0.015,0 0.07094,0.194133 0.145643,0.43693 0.06772,0.220099 0.170214,0.430223 0.218466,0.655394 0.02543,0.118674 -0.0058,0.242875 0,0.364107 0.02313,0.485534 0.0041,0.975233 0.07282,1.45643 0.01918,0.134321 0.07796,0.366679 0.218464,0.436931 0.02172,0.01085 0.05566,-0.01717 0.07282,0 0.05015,0.05015 0.06047,0.224642 0.218464,0.145642 0.11692,-0.05846 0.250613,-0.08079 0.364109,-0.145642 0.25726,-0.147008 0.480372,-0.347372 0.728215,-0.509752 0.45628,-0.298942 0.922772,-0.581993 1.38361,-0.873858 0.773851,-0.490106 1.568132,-0.948327 2.330288,-1.45643 0.375688,-0.250458 0.712912,-0.556258 1.092322,-0.801037 0.374444,-0.241578 0.789202,-0.416158 1.165146,-0.655394 0.338037,-0.215114 0.656844,-0.546889 1.0195,-0.728215 0.06134,-0.03067 0.197001,-1.57e-4 0.218464,0.07282 0.112961,0.384066 0.177557,0.781304 0.291288,1.165145 0.08071,0.27241 0.213233,0.52785 0.291285,0.801037 0.173686,0.607896 0.218466,1.334106 0.218466,1.96618 0,0.04449 0.05376,0.528814 0,0.582572 -0.03153,0.03153 -0.346448,0.0375 -0.291287,-0.07282 0.136972,-0.273947 0.684604,-0.50978 0.873857,-0.582573 0.943663,-0.362947 2.036879,-0.630412 2.985683,-0.946679 0.350756,-0.116919 0.693968,-0.261641 1.019503,-0.43693 0.154117,-0.08299 0.277998,-0.217932 0.436928,-0.291285 0.582393,-0.268796 0.429024,0.0056 0.946679,-0.364109 0.126733,-0.09052 0.121335,-0.27913 0.291288,-0.364106 0.08684,-0.04342 -0.01135,0.194855 0,0.291285 0.04011,0.340934 0.09141,0.680529 0.145642,1.019503 0.130818,0.81761 0.395399,1.550305 0.655394,2.330288 0.01535,0.04606 -0.02172,0.102219 0,0.145643 0.156398,0.312798 0.820867,-0.201041 1.310788,-0.43693 1.639679,-0.789475 2.139069,-1.055389 3.422611,-2.40311 0.20743,-0.217803 1.034534,-1.514221 1.092324,-1.456431 0.01717,0.01717 -0.01085,0.05111 0,0.07282 0.13602,0.272042 0.280445,0.540232 0.436928,0.801037 0.07997,0.133281 0.21132,0.23083 0.291287,0.364109 0.25716,0.428598 0.504685,0.863727 0.728216,1.310788 0.08419,0.168376 0.0021,0.368104 0.07282,0.509749 0.06951,0.13902 0.218562,0.226743 0.291285,0.364109 0.162613,0.30716 0.289957,0.631738 0.43693,0.946679 0.04591,0.09837 0.06888,0.214527 0.145643,0.291288 0.15067,0.150669 -0.0059,-0.230246 0.145642,0.07282 0.123876,0.247751 0.335423,0.488516 0.509752,0.728215 0.168667,0.231916 0.287872,0.431808 0.436928,0.655392 0.03808,0.05713 0.11494,0.08423 0.145645,0.145645 0.0217,0.04342 -0.03433,0.111313 0,0.145643 0.03985,0.03985 0.489754,-0.229407 0.801036,-0.436931 0.850025,-0.566682 1.754519,-1.244766 2.475932,-1.966179 0.285316,-0.285319 0.602316,-0.641194 0.873857,-0.946682 0.211021,-0.237397 0.359884,-0.505526 0.582573,-0.728215 0.04325,-0.04325 0.505518,-0.509749 0.436928,-0.509749 -0.04855,0 0,0.09709 0,0.145642 0,0.110652 -0.0271,0.255702 0,0.364107 0.100602,0.402407 0.282882,0.78002 0.43693,1.165145 0.02244,0.05611 0.116581,0.335045 0.145643,0.364107 0.01717,0.01717 0.05566,-0.01717 0.07282,0 0.03433,0.03433 -0.04039,0.172574 0,0.145645 0.835184,-0.556789 0.582573,-3.015324 0.582573,-3.859541 0,-0.146791 -0.02381,-0.592942 0.07282,-0.728215 0.0631,-0.08834 0.204441,-0.08051 0.291288,-0.145645 0.109849,-0.08239 0.177032,-0.215117 0.291285,-0.291285 0.375623,-0.250415 1.036455,-0.360569 1.45643,-0.436931 0.0163,-0.003 0.340427,-0.02368 0.364107,0 0.03433,0.03433 -0.02172,0.102222 0,0.145646 0.12115,0.242297 0.457729,0.613769 0.582573,0.801036 0.127026,0.190537 0.234796,0.393576 0.364109,0.58257 0.568068,0.830257 1.159941,1.659578 1.747715,2.475934 0.389001,0.540279 0.871728,1.052716 1.237967,1.602073 0.175342,0.263015 0.194673,0.72966 0.291285,1.019501 0.04855,0.121369 0.0971,0.242739 0.145643,0.364109 0.02426,0.02426 0.05747,0.04212 0.07282,0.07282 0.03257,0.06513 -0.03257,0.153331 0,0.218464 0.01085,0.02172 0.05566,0.01717 0.07282,0 0.01717,-0.01717 -0.01717,-0.05566 0,-0.07282 0.03838,-0.03838 0.102799,-0.0395 0.145646,-0.07282 0.176651,-0.137395 0.340378,-0.290652 0.509748,-0.43693 0.364655,-0.314928 0.751625,-0.605981 1.092325,-0.946679 0.59594,-0.59594 1.62519,-2.038594 1.96618,-2.621574 0.0888,-0.151887 1.0088,-2.241412 1.45643,-2.912861 0.0135,-0.02019 0.062,0.02172 0.0728,0 0.0217,-0.04342 -0.0217,-0.102222 0,-0.145645 0.0501,-0.100198 0.10422,0.0038 0.14565,0.07282 0.30803,0.513386 0.19036,0.108177 0.65539,0.728215 0.3481,0.464129 0.46413,0.820351 0.72821,1.310785 0.104,0.193141 0.2858,0.440032 0.36411,0.655394 0.0875,0.240737 0.14956,0.637641 0.29129,0.873858 0.08,0.133279 0.20094,0.237631 0.29129,0.364109 0.0243,0.04855 0.0485,0.09709 0.0728,0.145643 0.0243,0 0.0556,-0.01717 0.0728,0 0.0172,0.01717 -0.0243,0.07282 0,0.07282 0.30519,0 0.39933,-0.341778 0.58257,-0.509751 1.03932,-0.952712 1.14531,-1.082406 2.18465,-1.602074 0.0691,-0.03453 0.4978,-0.230412 0.58257,-0.145642 0.0172,0.01717 -0.004,0.04883 0,0.07282 0.0449,0.29187 0.0971,0.582573 0.14564,0.873858 0.22947,1.376802 -0.14341,-0.647221 0.29129,0.946682 0.0283,0.103687 0.0255,0.68086 0.0728,0.728215 0.0416,0.0416 0.16067,0.06473 0.21846,0.145643 0.0947,0.132503 0.14565,0.291285 0.21847,0.436927 0.19419,0.24274 0.38496,0.488257 0.58257,0.728216 0.14227,0.172754 0.28956,0.341328 0.43693,0.509751 0.0452,0.05167 0.11494,0.08424 0.14564,0.145643 0.0217,0.04342 -0.0343,0.111315 0,0.145642 0.0515,0.05149 0.15788,0.04039 0.21847,0 0.15146,-0.100975 0.36852,-0.676142 0.50975,-0.873858 0.59036,-0.826502 -0.2853,0.7332 0.58257,-0.655394 0.0257,-0.04117 -0.0291,-0.106804 0,-0.145642 0.0525,-0.07002 0.15123,-0.08962 0.21846,-0.145643 0.0791,-0.06593 0.15668,-0.136075 0.21847,-0.218464 0.0145,-0.01942 -0.0217,-0.06197 0,-0.07282 0.0434,-0.02172 0.10222,0.02172 0.14564,0 0.0217,-0.01085 -0.0109,-0.05111 0,-0.07282 0.0437,-0.08739 0.17477,-0.13108 0.21847,-0.218467 0.0108,-0.02172 -0.0172,-0.05566 0,-0.07282 0.0172,-0.01717 0.0503,0.009 0.0728,0 0.10079,-0.04032 0.19923,-0.08811 0.29129,-0.145642 0.10292,-0.06433 0.18272,-0.164188 0.29128,-0.218464 0.0895,-0.04476 0.20177,-0.02807 0.29129,-0.07282 0.0614,-0.0307 0.0842,-0.114941 0.14564,-0.145646 0.0651,-0.03256 0.16697,0.05149 0.21846,0 0.15121,-0.151201 0.0213,-0.145642 0.21847,-0.145642"
         id="path75" />
      <path
         id="rect77"
         style="fill:#ffffff;stroke-width:0.40468"
         d="M 19.999813 40.000142 L 19.999813 53.999805 L 34.999931 53.999805 L 34.999931 40.000142 L 19.999813 40.000142 z M 22.000208 42.00002 L 33.000053 42.00002 L 33.000053 45.999776 L 22.000208 45.999776 L 22.000208 42.00002 z M 22.000208 48.000171 L 25.999963 48.000171 L 25.999963 51.999927 L 22.000208 51.999927 L 22.000208 48.000171 z M 28.99978 48.000171 L 33.000053 48.000171 L 33.000053 51.999927 L 28.99978 51.999927 L 28.99978 48.000171 z " />
      <rect
         style="fill:#ffffff;stroke-width:0.311143"
         id="rect78"
         width="3"
         height="3"
         x="29.5"
         y="48.5" />
    </g>
    <g
       id="g79"
       transform="translate(0,5e-5)">
      <path
         id="rect1-9"
         style="fill:#ffffff;stroke-width:0.295391"
         d="m 119.99981,73.99995 v -14 H 39.999869 v 14 z m -2.00038,-2.799855 H 41.999744 v -8.40029 h 75.999686 z" />
      <path
         style="fill:#ffffff;stroke-width:0.264583"
         d="m 43.183167,67.359913 c 0.02426,0.121369 0.01746,0.253402 0.07282,0.364106 0.141539,0.28308 0.338172,0.535091 0.509749,0.801037 0.622009,0.964115 1.324065,1.916596 1.893361,2.912861 0.19364,0.338873 0.297767,0.695045 0.509751,0.801037 0.124891,0.06245 0.04968,0.218466 0.07282,0.218466 0.02426,0 -0.0082,-0.04996 0,-0.07282 0.113713,-0.3184 0.222425,-0.639704 0.364107,-0.946682 0.150191,-0.325411 0.334637,-0.633973 0.509751,-0.946679 0.663083,-1.184079 1.202227,-2.464559 2.111825,-3.495434 0.341442,-0.386967 0.788652,-0.666541 1.165143,-1.019501 0.175308,-0.164351 0.317513,-0.365572 0.509752,-0.509751 0.104574,-0.07843 0.257736,-0.06966 0.364106,-0.145643 0.07122,-0.05087 0.07563,-0.165952 0.145645,-0.218464 0.03884,-0.02913 0.102219,0.02172 0.145643,0 0.02172,-0.01085 -0.01085,-0.05111 0,-0.07282 0.0805,-0.161012 0.0452,-0.02259 0.145642,-0.07282 0.08603,-0.04302 0.138131,-0.16491 0.218464,-0.218467 0.047,-0.03133 0.259749,-0.114104 0.291288,-0.145642 0.05337,-0.05337 0.514429,-0.553183 0.58257,-0.655394 0.02901,-0.04352 -0.05819,-0.145643 0.07282,-0.145643 0.0172,0 -0.01741,0.09967 0,0.291285 0.01773,0.1949 0.04855,0.388382 0.07282,0.582573 0.05819,0.465561 0.152331,0.920681 0.218464,1.38361 0.05347,0.3743 0.01064,0.507886 0.145642,0.946679 0.09236,0.300156 0.265587,0.578294 0.364109,0.873858 0.06129,0.183875 -0.147907,-0.07584 0.07282,0.218466 0.04119,0.05492 0.107558,0.08852 0.145642,0.145643 0.08445,0.126674 0.204282,0.757123 0.509752,0.582572 0.134948,-0.07712 0.226965,-0.218143 0.364106,-0.291287 0.23068,-0.123029 0.505786,-0.153903 0.728215,-0.291285 1.703417,-1.052111 3.231941,-2.390659 4.951865,-3.422613 0.353849,-0.21231 0.723231,-0.398026 1.092322,-0.58257 0.07373,-0.03687 0.430205,-0.152369 0.509752,-0.07282 0.02495,0.02498 0.06308,0.600186 0.07282,0.655392 0.106802,0.605213 0.179379,1.21625 0.291285,1.820539 0.09449,0.510241 0.165431,1.02583 0.291288,1.529252 0.06006,0.240231 0.224763,0.383006 0.291285,0.582573 0.01535,0.04606 -0.01535,0.09959 0,0.145643 0.02133,0.06396 0.238694,0.337812 0.291285,0.364106 0.02172,0.01085 0.06197,-0.0217 0.07282,0 0.02172,0.04342 0,0.0971 0,0.145645 0.07282,0.09709 0.160925,0.184423 0.218467,0.291285 0.146121,0.271368 0.405929,1.106263 0.801036,1.237967 0.105185,0.03506 0.251489,-0.112956 0.291285,-0.145645 0.612413,-0.50305 1.218803,-1.013478 1.82054,-1.529252 0.757653,-0.649417 1.507429,-1.307983 2.257467,-1.966179 0.439394,-0.385591 0.848537,-0.807273 1.310786,-1.165146 0.292983,-0.226825 0.6356,-0.381283 0.946682,-0.582573 0.130492,-0.08444 0.314954,-0.143833 0.364106,-0.291285 0.01535,-0.04606 -0.02172,-0.102222 0,-0.145643 0.01085,-0.02172 0.05111,0.01085 0.07282,0 0.112763,-0.05638 0.2598,-0.228703 0.364109,-0.291287 0.43126,-0.258755 0.668295,-0.358574 1.092322,-0.655392 0.05566,-0.03897 0.246549,-0.263202 0.364109,-0.145645 0.01717,0.01717 -0.0048,0.04902 0,0.07282 0.04389,0.219448 0.08869,0.438971 0.145642,0.655394 0.06449,0.245084 0.146955,0.485088 0.218464,0.728216 0.196945,0.669613 0.257487,0.989187 0.582573,1.747718 0.119811,0.279556 0.300908,0.528995 0.43693,0.801037 0.145643,0.291285 0.304663,0.57626 0.436928,0.873858 0.04065,0.09146 0.02806,0.201768 0.07282,0.291285 0.02172,0.04342 0.111316,-0.03433 0.145643,0 0.01717,0.01717 -0.02426,0.07282 0,0.07282 0.04855,0 0.03433,-0.111313 0,-0.145642 -0.01606,-0.01606 -0.291285,0.0123 -0.291285,0 0,-0.03433 0.06197,-0.04025 0.07282,-0.07282 0.01535,-0.04606 -0.01299,-0.09887 0,-0.145642 0.108905,-0.39206 0.239591,-0.777761 0.364109,-1.165146 0.427278,-1.329314 0.155837,-0.537689 0.873858,-2.039001 0.131373,-0.274693 0.676873,-1.434952 0.873858,-1.237967 0.159255,0.159256 0.236553,1.32841 0.291285,1.602074 0.04946,0.247271 0.205726,0.561467 0.291287,0.801036 0.252622,0.707343 0.484429,1.462778 0.873858,2.111825 0.03533,0.05887 0.114938,0.08424 0.145643,0.145643 0.01085,0.02172 -0.01717,0.05566 0,0.07282 0.175649,0.175649 1.040696,-0.352624 1.165145,-0.436928 0.48649,-0.329559 0.899118,-0.75983 1.383607,-1.092324 0.755253,-0.518308 1.556724,-0.965875 2.330291,-1.456431 0.221735,-0.140613 0.423048,-0.314642 0.655392,-0.436927 0.231352,-0.121764 0.490842,-0.181729 0.728215,-0.291288 0.646806,-0.431202 -0.17504,0.05835 0.436931,-0.145643 0.05149,-0.01717 0.02426,-0.121369 0.07282,-0.145642 0.02299,-0.01148 0.275534,-0.01574 0.291285,0 0.01717,0.01717 0,0.04855 0,0.07282 0,0.194191 -0.02408,0.389882 0,0.582573 0.04901,0.392096 0.181866,0.771692 0.218466,1.165143 0.06075,0.653023 0.0059,1.313762 0.07282,1.966182 0.03063,0.298683 0.154683,0.580461 0.218463,0.873858 0.124767,0.573921 0.163447,0.881957 0.364109,1.383609 0.03285,0.08213 -0.03919,0.212911 0,0.291285 0.02661,0.05323 0.709073,0.93711 0.728216,0.946682 0.04342,0.0217 0.111313,0.03433 0.145642,0 0.03838,-0.03838 0.03444,-0.107265 0.07282,-0.145645 0.756491,-0.756491 0.191791,0.09259 1.092321,-1.092322 0.264787,-0.348403 0.485479,-0.728215 0.728216,-1.092321 0.364109,-0.388382 0.751511,-0.756172 1.092324,-1.165146 0.1466,-0.175921 0.240665,-0.389694 0.364106,-0.582573 0.5299,-0.827966 1.08466,-1.640107 1.602074,-2.475931 0.05714,-0.0923 0.08811,-0.199231 0.145645,-0.291288 0.161594,-0.258548 0.411207,-0.432588 0.509749,-0.728212 0.08226,-0.246782 -0.20565,0.20565 0.145642,-0.145646 0.03433,-0.03433 -0.03433,-0.179969 0,-0.145642 0.125442,0.125439 0.141491,0.641276 0.145645,0.655394 0.07377,0.250814 0.217517,0.477401 0.291285,0.728215 0.04843,0.164666 0.05153,0.339434 0.07282,0.509752 0.0063,0.05043 -0.03308,0.258201 0,0.291285 0.06866,0.06866 0.206409,0.04715 0.291287,0 0.165725,-0.09207 0.283605,-0.2526 0.436928,-0.364106 0.114469,-0.08325 0.241218,-0.148244 0.364109,-0.218467 0.06665,-0.03808 0.164185,-0.01855 0.218464,-0.07282 0.08258,-0.08258 0.122743,-0.22747 0.218464,-0.291285 0.06296,-0.04197 0.291782,0.0241 0.364109,0 0.32145,-0.107151 -0.264573,-0.07282 0.218463,-0.07282 0.08809,0 0.278787,0.02133 0.364107,0 0.05266,-0.01318 0.107264,-0.03444 0.145645,-0.07282 0.01717,-0.01717 -0.01085,-0.09453 0,-0.07282 0.444616,0.889236 0.945568,1.906593 1.602073,2.694398 0.27427,0.329123 0.616747,0.603866 0.873858,0.946679 0.03664,0.04885 0.20819,0.364109 0.218464,0.364109 0.01127,0 -0.01471,-0.273648 0,-0.291288 0.109884,-0.131857 0.232248,-0.254225 0.364109,-0.364106 0.970463,-0.808723 2.012683,-1.334037 3.131323,-1.893361 0.6792,-0.4528 -0.10222,0.0098 0.36411,-0.145642 0.0515,-0.01717 0.0243,-0.169916 0.0728,-0.145643 0.17665,0.08832 0.31449,0.493263 0.36411,0.582573 0.27438,0.493876 0.35498,1.028451 0.43693,1.602073 0.0103,0.07209 -0.0326,0.153331 0,0.218464 0.0337,0.06735 0.39453,0.471344 0.50975,0.509751 0.25435,0.08479 0.53361,0.05372 0.80104,0.07282 0.10173,0.0073 0.67676,0.05145 0.72821,0 0.0172,-0.01717 -0.0109,-0.05111 0,-0.07282 0.0391,-0.07828 0.10197,-0.142618 0.14564,-0.218463 0.41764,-0.725372 0.80986,-1.465414 1.23797,-2.184646 0.25649,-0.430906 0.57663,-0.940734 0.94668,-1.310789 0.47289,-0.472884 0.97068,-0.938408 1.52925,-1.310788 0.12226,-0.0815 0.29129,-0.04066 0.29129,-0.218464 0,-0.02426 0.0243,-0.07282 0,-0.07282 -0.0111,0 -0.0123,0.172487 0.0728,0.364106 0.21993,0.494843 0.48601,0.972027 0.72822,1.456431 0.0519,0.103804 0.031,0.207611 0.0728,0.291288 0.0369,0.0738 0.53351,0.630862 0.58257,0.655394 0.0217,0.01085 0.0557,-0.01717 0.0728,0 0.0343,0.03433 -0.0343,0.111313 0,0.145643 0.0172,0.01717 0.0557,-0.01717 0.0728,0 0.0172,0.01717 -0.0135,0.05262 0,0.07282 0.0381,0.05713 0.12015,0.0819 0.14564,0.145642 0.0271,0.06762 -0.02,0.148445 0,0.218464 0.0598,0.209317 0.20347,0.334119 0.29129,0.509752 0.0359,0.07178 -0.046,0.226832 0,0.291285 0.19722,0.2761 0.56765,0.647935 0.87386,0.801036 0.1,0.05 0.21298,0.35863 0.29129,0.436931 0.0384,0.03838 0.10726,0.03444 0.14564,0.07282 0.0343,0.03433 -0.0217,0.102222 0,0.145642 0.15153,0.303067 -0.005,-0.07785 0.14564,0.07282 0.0172,0.01717 -0.0172,0.08999 0,0.07282 0.18666,-0.02048 0.0268,-0.157057 0.0728,-0.218467 0.27183,-0.362437 0.698,-0.646469 0.94668,-1.0195 0.23836,-0.357532 0.39961,-0.726385 0.58258,-1.092325 0.0307,-0.06141 0.12393,-0.08051 0.14564,-0.145642 0.0153,-0.04606 -0.0153,-0.09959 0,-0.145643 0.009,-0.02619 0.29036,-0.218463 0.29128,-0.218463"
         id="path76" />
      <path
         id="rect77-7"
         style="fill:#ffffff;stroke-width:0.404678"
         d="M 20,60 V 73.999663 H 35 V 60 Z m 2.000379,1.999878 h 10.999759 v 3.999756 H 22.000379 Z m 0,6.000151 h 3.999724 v 3.999756 h -3.999724 z m 6.999517,0 h 4.000242 v 3.999756 h -4.000242 z" />
      <rect
         style="fill:#ffffff;stroke-width:0.311142"
         id="rect78-0"
         width="2.9999764"
         height="3"
         x="22.5"
         y="68.499863" />
    </g>
    <g
       id="g80"
       transform="translate(0,3.535416)">
      <path
         id="rect1-3-5-0"
         style="fill:#ffffff;stroke-width:0.295391"
         d="m 119.99981,90.464584 v -14 H 40.000014 v 14 z m -2.00038,-2.799855 H 41.999888 v -8.40029 h 75.999542 z" />
      <path
         style="fill:#ffffff;stroke-width:0.264583"
         d="m 42.382317,83.871397 c 0.896236,-0.502263 1.787768,-1.06849 2.621574,-1.674894 0.479493,-0.348724 0.869293,-0.849948 1.237966,-1.310788 0.124535,-0.155668 0.255326,-0.400788 0.436928,-0.509749 0.06582,-0.03949 0.154596,-0.03025 0.218467,-0.07282 0.02019,-0.01347 0,-0.04855 0,-0.07282 0.04855,-0.02426 0.09415,-0.05566 0.145642,-0.07282 0.118721,-0.03957 0.132871,0.377328 0.145643,0.436931 0.1617,0.754605 0.228589,0.761963 0.43693,1.45643 0.07953,0.265092 0.113085,0.545119 0.218464,0.801037 0.06665,0.161856 0.213005,0.280368 0.291285,0.436928 0.06866,0.137313 0.07213,0.302154 0.145642,0.43693 0.190643,0.349509 0.513609,0.611354 0.728216,0.946679 0.258074,0.403244 0.458515,0.842407 0.728215,1.237967 0.09669,0.141814 0.264343,0.224435 0.364109,0.364106 0.287155,0.402019 0.454205,0.899771 0.728215,1.310788 0.0819,0.12286 0.455483,0.643491 0.582573,0.728216 0.047,0.03133 0.259747,0.114104 0.291285,0.145642 0.0601,0.0601 -0.122139,0.279535 0.145643,0.145645 0.04613,-0.02307 0.05983,-0.254915 0.07282,-0.291287 0.227428,-0.636797 0.473713,-1.266891 0.728215,-1.893359 0.684051,-1.683816 1.483609,-3.357477 2.475934,-4.879043 0.239046,-0.366541 0.494538,-0.722334 0.728213,-1.092322 0.05797,-0.09178 0.07416,-0.20959 0.145645,-0.291288 0.280644,-0.320735 0.812916,-0.521631 1.092322,-0.801036 0.03838,-0.03838 0.03444,-0.107262 0.07282,-0.145643 0.05428,-0.05428 0.145643,-0.04855 0.218466,-0.07282 0.343652,-0.114551 0.210098,0.671335 0.218464,0.728215 0.09698,0.659445 0.248272,1.309786 0.364107,1.96618 0.01897,0.107577 0.138112,1.011973 0.145642,1.019503 0.134059,0.134056 0.297622,-0.235516 0.43693,-0.364109 0.189606,-0.175019 0.400114,-0.327292 0.582573,-0.509749 0.05428,-0.05428 0.01855,-0.164187 0.07282,-0.218466 0.04855,-0.04855 0.2143,-0.145643 0.145643,-0.145643 -0.015,0 0.07094,0.194133 0.145643,0.43693 0.06772,0.220099 0.170214,0.430223 0.218466,0.655394 0.02543,0.118674 -0.0058,0.242875 0,0.364107 0.02313,0.485534 0.0041,0.975233 0.07282,1.45643 0.01918,0.134321 0.07796,0.366679 0.218464,0.436931 0.02172,0.01085 0.05566,-0.01717 0.07282,0 0.05015,0.05015 0.06047,0.224642 0.218464,0.145642 0.11692,-0.05846 0.250613,-0.08079 0.364109,-0.145642 0.25726,-0.147008 0.480372,-0.347372 0.728215,-0.509752 0.45628,-0.298942 0.922772,-0.581993 1.38361,-0.873858 0.773851,-0.490106 1.568132,-0.948327 2.330288,-1.45643 0.375688,-0.250458 0.712912,-0.556258 1.092322,-0.801037 0.374444,-0.241578 0.789202,-0.416158 1.165146,-0.655394 0.338037,-0.215114 0.656844,-0.546889 1.0195,-0.728215 0.06134,-0.03067 0.197001,-1.57e-4 0.218464,0.07282 0.112961,0.384066 0.177557,0.781304 0.291288,1.165145 0.08071,0.27241 0.213233,0.52785 0.291285,0.801037 0.173686,0.607896 0.218466,1.334106 0.218466,1.96618 0,0.04449 0.05376,0.528814 0,0.582572 -0.03153,0.03153 -0.346448,0.0375 -0.291287,-0.07282 0.136972,-0.273947 0.684604,-0.50978 0.873857,-0.582573 0.943663,-0.362947 2.036879,-0.630412 2.985683,-0.946679 0.350756,-0.116919 0.693968,-0.261641 1.019499,-0.43693 0.15412,-0.08299 0.278,-0.217932 0.43693,-0.291285 0.58239,-0.268796 0.42903,0.0056 0.94668,-0.364109 0.12673,-0.09052 0.12134,-0.27913 0.29129,-0.364106 0.0868,-0.04342 -0.0114,0.194855 0,0.291285 0.0401,0.340934 0.0914,0.680529 0.14564,1.019503 0.13082,0.81761 0.3954,1.550305 0.65539,2.330288 0.0153,0.04606 -0.0217,0.102219 0,0.145643 0.1564,0.312798 0.82087,-0.201041 1.31079,-0.43693 1.63968,-0.789475 2.13907,-1.055389 3.42261,-2.40311 0.20743,-0.217803 1.03454,-1.514221 1.09233,-1.456431 0.0172,0.01717 -0.0108,0.05111 0,0.07282 0.13602,0.272042 0.28044,0.540232 0.43693,0.801037 0.08,0.133281 0.21132,0.23083 0.29128,0.364109 0.25716,0.428598 0.50469,0.863727 0.72822,1.310788 0.0842,0.168376 0.002,0.368104 0.0728,0.509749 0.0695,0.13902 0.21856,0.226743 0.29128,0.364109 0.16262,0.30716 0.28996,0.631738 0.43693,0.946679 0.0459,0.09837 0.0689,0.214527 0.14565,0.291288 0.15067,0.150669 -0.006,-0.230246 0.14564,0.07282 0.12387,0.247751 0.33542,0.488516 0.50975,0.728215 0.16867,0.231916 0.28787,0.431808 0.43693,0.655392 0.0381,0.05713 0.11494,0.08423 0.14564,0.145645 0.0217,0.04342 -0.0343,0.111313 0,0.145643 0.0399,0.03985 0.48976,-0.229407 0.80104,-0.436931 0.85002,-0.566682 1.75452,-1.244766 2.47593,-1.966179 0.28532,-0.285319 0.60232,-0.641194 0.87386,-0.946682 0.21102,-0.237397 0.35988,-0.505526 0.58257,-0.728215 0.0433,-0.04325 0.50552,-0.509749 0.43693,-0.509749 -0.0486,0 0,0.09709 0,0.145642 0,0.110652 -0.0271,0.255702 0,0.364107 0.1006,0.402407 0.28288,0.78002 0.43693,1.165145 0.0224,0.05611 0.11658,0.335045 0.14564,0.364107 0.0172,0.01717 0.0557,-0.01717 0.0728,0 0.0343,0.03433 -0.0404,0.172574 0,0.145645 0.83519,-0.556789 0.58258,-3.015324 0.58258,-3.859541 0,-0.146791 -0.0238,-0.592942 0.0728,-0.728215 0.0631,-0.08834 0.20444,-0.08051 0.29128,-0.145645 0.10985,-0.08239 0.17704,-0.215117 0.29129,-0.291285 0.37562,-0.250415 1.03645,-0.360569 1.45643,-0.436931 0.0163,-0.003 0.34043,-0.02368 0.36411,0 0.0343,0.03433 -0.0217,0.102222 0,0.145646 0.12115,0.242297 0.45772,0.613769 0.58257,0.801036 0.12702,0.190537 0.23479,0.393576 0.36411,0.58257 0.56807,0.830257 1.15994,1.659578 1.74771,2.475934 0.389,0.540279 0.87173,1.052716 1.23797,1.602073 0.17534,0.263015 0.19467,0.72966 0.29128,1.019501 0.0486,0.121369 0.0971,0.242739 0.14565,0.364109 0.0243,0.02426 0.0575,0.04212 0.0728,0.07282 0.0326,0.06513 -0.0326,0.153331 0,0.218464 0.0109,0.02172 0.0557,0.01717 0.0728,0 0.0172,-0.01717 -0.0172,-0.05566 0,-0.07282 0.0384,-0.03838 0.1028,-0.0395 0.14564,-0.07282 0.17665,-0.137395 0.34038,-0.290652 0.50975,-0.43693 0.36466,-0.314928 0.75163,-0.605981 1.09233,-0.946679 0.59594,-0.59594 1.62519,-2.038594 1.96618,-2.621574 0.0888,-0.151887 1.0088,-2.241412 1.45643,-2.912861 0.0135,-0.02019 0.062,0.02172 0.0728,0 0.0217,-0.04342 -0.0217,-0.102222 0,-0.145645 0.0501,-0.100198 0.10422,0.0038 0.14565,0.07282 0.30803,0.513386 0.19036,0.108177 0.65539,0.728215 0.3481,0.464129 0.46413,0.820351 0.72821,1.310785 0.104,0.193141 0.2858,0.440032 0.36411,0.655394 0.0875,0.240737 0.14956,0.637641 0.29129,0.873858 0.08,0.133279 0.20094,0.237631 0.29129,0.364109 0.0243,0.04855 0.0485,0.09709 0.0728,0.145643 0.0243,0 0.0556,-0.01717 0.0728,0 0.0172,0.01717 -0.0243,0.07282 0,0.07282 0.30519,0 0.39933,-0.341778 0.58257,-0.509751 1.03932,-0.952712 1.14531,-1.082406 2.18465,-1.602074 0.0691,-0.03453 0.4978,-0.230412 0.58257,-0.145642 0.0172,0.01717 -0.004,0.04883 0,0.07282 0.0449,0.29187 0.0971,0.582573 0.14564,0.873858 0.22947,1.376802 -0.14341,-0.647221 0.29129,0.946682 0.0283,0.103687 0.0255,0.68086 0.0728,0.728215 0.0416,0.0416 0.16067,0.06473 0.21846,0.145643 0.0947,0.132503 0.14565,0.291285 0.21847,0.436927 0.19419,0.24274 0.38496,0.488257 0.58257,0.728216 0.14227,0.172754 0.28956,0.341328 0.43693,0.509751 0.0452,0.05167 0.11494,0.08424 0.14564,0.145643 0.0217,0.04342 -0.0343,0.111315 0,0.145642 0.0515,0.05149 0.15788,0.04039 0.21847,0 0.15146,-0.100975 0.36852,-0.676142 0.50975,-0.873858 0.59036,-0.826502 -0.2853,0.7332 0.58257,-0.655394 0.0257,-0.04117 -0.0291,-0.106804 0,-0.145642 0.0525,-0.07002 0.15123,-0.08962 0.21846,-0.145643 0.0791,-0.06593 0.15668,-0.136075 0.21847,-0.218464 0.0145,-0.01942 -0.0217,-0.06197 0,-0.07282 0.0434,-0.02172 0.10222,0.02172 0.14564,0 0.0217,-0.01085 -0.0109,-0.05111 0,-0.07282 0.0437,-0.08739 0.17477,-0.13108 0.21847,-0.218467 0.0108,-0.02172 -0.0172,-0.05566 0,-0.07282 0.0172,-0.01717 0.0503,0.009 0.0728,0 0.10079,-0.04032 0.19923,-0.08811 0.29129,-0.145642 0.10292,-0.06433 0.18272,-0.164188 0.29128,-0.218464 0.0895,-0.04476 0.20177,-0.02807 0.29129,-0.07282 0.0614,-0.0307 0.0842,-0.114941 0.14564,-0.145646 0.0651,-0.03256 0.16697,0.05149 0.21846,0 0.15121,-0.151201 0.0213,-0.145642 0.21847,-0.145642"
         id="path75-9" />
      <path
         id="rect77-0"
         style="fill:#ffffff;stroke-width:0.40468"
         d="M 20,76.464726 V 90.464389 H 35.000118 V 76.464726 Z m 2.000395,1.999878 H 33.00024 V 82.46436 H 22.000395 Z m 0,6.000151 h 3.999755 v 3.999756 h -3.999755 z m 6.999572,0 h 4.000273 v 3.999756 h -4.000273 z" />
      <rect
         style="fill:#ffffff;stroke-width:0.311143"
         id="rect78-4"
         width="3"
         height="3"
         x="29.500185"
         y="79" />
    </g>
    <g
       id="g81"
       transform="matrix(1.0000019,0,0,1,-3.740042e-5,3.535466)">
      <path
         id="rect1-9-7"
         style="fill:#ffffff;stroke-width:0.295391"
         d="M 120,110.46453 V 96.464534 H 40.000056 v 13.999996 z m -2.00038,-2.79985 H 41.999931 v -8.400291 h 75.999689 z" />
      <path
         style="fill:#ffffff;stroke-width:0.264583"
         d="m 43.183354,103.8245 c 0.02426,0.12137 0.01746,0.2534 0.07282,0.3641 0.141539,0.28308 0.338172,0.53509 0.509749,0.80104 0.622009,0.96412 1.324065,1.9166 1.893361,2.91286 0.19364,0.33887 0.297767,0.69505 0.509751,0.80104 0.124891,0.0624 0.04968,0.21846 0.07282,0.21846 0.02426,0 -0.0082,-0.05 0,-0.0728 0.113713,-0.3184 0.222425,-0.6397 0.364107,-0.94668 0.150191,-0.32541 0.334637,-0.63397 0.509751,-0.94668 0.663083,-1.18408 1.202227,-2.46456 2.111825,-3.49543 0.341442,-0.38697 0.788652,-0.66654 1.165143,-1.0195 0.175308,-0.16435 0.317513,-0.36557 0.509752,-0.50975 0.104574,-0.0784 0.257736,-0.0697 0.364106,-0.14565 0.07122,-0.0509 0.07563,-0.16595 0.145645,-0.21846 0.03884,-0.0291 0.102219,0.0217 0.145643,0 0.02172,-0.0109 -0.01085,-0.0511 0,-0.0728 0.0805,-0.16101 0.0452,-0.0226 0.145642,-0.0728 0.08603,-0.043 0.138131,-0.16491 0.218464,-0.21847 0.047,-0.0313 0.259749,-0.1141 0.291288,-0.14564 0.05337,-0.0534 0.514429,-0.55318 0.58257,-0.65539 0.02901,-0.0435 -0.05819,-0.14565 0.07282,-0.14565 0.0172,0 -0.01741,0.0997 0,0.29129 0.01773,0.1949 0.04855,0.38838 0.07282,0.58257 0.05819,0.46556 0.152331,0.92068 0.218464,1.38361 0.05347,0.3743 0.01064,0.50789 0.145642,0.94668 0.09236,0.30016 0.265587,0.5783 0.364109,0.87386 0.06129,0.18387 -0.147907,-0.0758 0.07282,0.21847 0.04119,0.0549 0.107558,0.0885 0.145642,0.14564 0.08445,0.12667 0.204282,0.75712 0.509752,0.58257 0.134948,-0.0771 0.226965,-0.21814 0.364106,-0.29129 0.23068,-0.12303 0.505786,-0.1539 0.728215,-0.29128 1.703417,-1.05211 3.231941,-2.39066 4.951865,-3.42261 0.353849,-0.21231 0.723231,-0.39803 1.092322,-0.58257 0.07373,-0.0369 0.430205,-0.15237 0.509752,-0.0728 0.02495,0.025 0.06308,0.60018 0.07282,0.65539 0.106802,0.60521 0.179379,1.21625 0.291285,1.82054 0.09449,0.51024 0.165431,1.02583 0.291288,1.52925 0.06006,0.24023 0.224763,0.383 0.291285,0.58257 0.01535,0.0461 -0.01535,0.0996 0,0.14564 0.02133,0.064 0.238694,0.33782 0.291285,0.36411 0.02172,0.0109 0.06197,-0.0217 0.07282,0 0.02172,0.0434 0,0.0971 0,0.14565 0.07282,0.0971 0.160925,0.18442 0.218467,0.29128 0.146121,0.27137 0.405929,1.10626 0.801036,1.23797 0.105185,0.0351 0.251489,-0.11296 0.291285,-0.14565 0.612413,-0.50305 1.218803,-1.01348 1.82054,-1.52925 0.757653,-0.64942 1.507429,-1.30798 2.257467,-1.96618 0.439394,-0.38559 0.848537,-0.80727 1.310786,-1.16514 0.292983,-0.22683 0.6356,-0.38129 0.946682,-0.58258 0.130492,-0.0844 0.314954,-0.14383 0.364106,-0.29128 0.01535,-0.0461 -0.02172,-0.10222 0,-0.14565 0.01085,-0.0217 0.05111,0.0108 0.07282,0 0.112763,-0.0564 0.2598,-0.2287 0.364109,-0.29128 0.43126,-0.25876 0.668295,-0.35858 1.092322,-0.65539 0.05566,-0.039 0.246549,-0.26321 0.364109,-0.14565 0.01717,0.0172 -0.0048,0.049 0,0.0728 0.04389,0.21945 0.08869,0.43897 0.145642,0.65539 0.06449,0.24509 0.146955,0.48509 0.218464,0.72822 0.196945,0.66961 0.257487,0.98919 0.582572,1.74772 0.11981,0.27955 0.30091,0.52899 0.43693,0.80104 0.14564,0.29128 0.30466,0.57626 0.43693,0.87385 0.0406,0.0915 0.0281,0.20177 0.0728,0.29129 0.0217,0.0434 0.11131,-0.0343 0.14564,0 0.0172,0.0172 -0.0243,0.0728 0,0.0728 0.0485,0 0.0343,-0.11131 0,-0.14564 -0.0161,-0.0161 -0.29128,0.0123 -0.29128,0 0,-0.0343 0.062,-0.0403 0.0728,-0.0728 0.0153,-0.0461 -0.013,-0.0989 0,-0.14565 0.1089,-0.39206 0.23959,-0.77776 0.36411,-1.16514 0.42727,-1.32932 0.15583,-0.53769 0.87385,-2.039 0.13138,-0.2747 0.67688,-1.43495 0.87386,-1.23797 0.15926,0.15926 0.23655,1.32841 0.29129,1.60207 0.0495,0.24728 0.20572,0.56147 0.29128,0.80104 0.25263,0.70734 0.48443,1.46278 0.87386,2.11183 0.0353,0.0589 0.11494,0.0842 0.14564,0.14564 0.0108,0.0217 -0.0172,0.0557 0,0.0728 0.17565,0.17565 1.0407,-0.35263 1.16515,-0.43693 0.48649,-0.32956 0.89912,-0.75983 1.38361,-1.09232 0.75525,-0.51831 1.55672,-0.96588 2.33029,-1.45643 0.22173,-0.14062 0.42305,-0.31465 0.65539,-0.43693 0.23135,-0.12177 0.49084,-0.18173 0.72821,-0.29129 0.64681,-0.4312 -0.17504,0.0584 0.43694,-0.14564 0.0515,-0.0172 0.0243,-0.12137 0.0728,-0.14564 0.023,-0.0115 0.27553,-0.0157 0.29128,0 0.0172,0.0172 0,0.0486 0,0.0728 0,0.19419 -0.0241,0.38988 0,0.58257 0.049,0.39209 0.18187,0.77169 0.21847,1.16514 0.0607,0.65302 0.006,1.31376 0.0728,1.96618 0.0306,0.29869 0.15468,0.58046 0.21846,0.87386 0.12477,0.57392 0.16345,0.88196 0.36411,1.38361 0.0329,0.0821 -0.0392,0.21291 0,0.29129 0.0266,0.0532 0.70907,0.93711 0.72821,0.94668 0.0434,0.0217 0.11132,0.0343 0.14565,0 0.0384,-0.0384 0.0344,-0.10727 0.0728,-0.14565 0.75649,-0.75649 0.19179,0.0926 1.09232,-1.09232 0.26478,-0.3484 0.48548,-0.72821 0.72821,-1.09232 0.36411,-0.38838 0.75151,-0.75617 1.09233,-1.16515 0.1466,-0.17592 0.24066,-0.38969 0.3641,-0.58257 0.5299,-0.82797 1.08466,-1.64011 1.60208,-2.47593 0.0571,-0.0923 0.0881,-0.19923 0.14564,-0.29129 0.1616,-0.25855 0.41121,-0.43259 0.50975,-0.72821 0.0823,-0.24678 -0.20565,0.20565 0.14564,-0.14565 0.0343,-0.0343 -0.0343,-0.17997 0,-0.14564 0.12545,0.12544 0.14149,0.64128 0.14565,0.6554 0.0738,0.25081 0.21752,0.4774 0.29128,0.72821 0.0484,0.16467 0.0515,0.33943 0.0728,0.50975 0.006,0.0504 -0.0331,0.2582 0,0.29129 0.0687,0.0687 0.20641,0.0472 0.29129,0 0.16573,-0.0921 0.28361,-0.2526 0.43693,-0.36411 0.11447,-0.0833 0.24122,-0.14824 0.36411,-0.21847 0.0667,-0.0381 0.16418,-0.0186 0.21846,-0.0728 0.0826,-0.0826 0.12274,-0.22747 0.21847,-0.29128 0.063,-0.042 0.29178,0.0241 0.3641,0 0.32145,-0.10715 -0.26457,-0.0728 0.21847,-0.0728 0.0881,0 0.27878,0.0213 0.3641,0 0.0527,-0.0132 0.10727,-0.0344 0.14565,-0.0728 0.0172,-0.0172 -0.0109,-0.0945 0,-0.0728 0.44462,0.88924 0.94557,1.90659 1.60207,2.6944 0.27427,0.32912 0.61675,0.60386 0.87386,0.94668 0.0366,0.0489 0.20819,0.36411 0.21846,0.36411 0.0113,0 -0.0147,-0.27365 0,-0.29129 0.10989,-0.13186 0.23225,-0.25423 0.36411,-0.36411 0.97047,-0.80872 2.01269,-1.33404 3.13133,-1.89336 0.6792,-0.4528 -0.10222,0.01 0.36411,-0.14564 0.0515,-0.0172 0.0243,-0.16992 0.0728,-0.14564 0.17665,0.0883 0.31449,0.49326 0.36411,0.58257 0.27438,0.49387 0.35498,1.02845 0.43693,1.60207 0.0103,0.0721 -0.0326,0.15333 0,0.21847 0.0337,0.0674 0.39453,0.47134 0.50975,0.50975 0.25435,0.0848 0.53361,0.0537 0.80104,0.0728 0.10173,0.007 0.67676,0.0515 0.72821,0 0.0172,-0.0172 -0.0109,-0.0511 0,-0.0728 0.0391,-0.0783 0.10197,-0.14262 0.14564,-0.21847 0.41764,-0.72537 0.80986,-1.46541 1.23797,-2.18464 0.25649,-0.43091 0.57663,-0.94074 0.94668,-1.31079 0.47289,-0.47289 0.97068,-0.93841 1.52925,-1.31079 0.12226,-0.0815 0.29129,-0.0407 0.29129,-0.21846 0,-0.0243 0.0243,-0.0728 0,-0.0728 -0.0111,0 -0.0123,0.17248 0.0728,0.3641 0.21993,0.49485 0.48601,0.97203 0.72822,1.45643 0.0519,0.10381 0.031,0.20761 0.0728,0.29129 0.0369,0.0738 0.53351,0.63086 0.58257,0.6554 0.0217,0.0109 0.0557,-0.0172 0.0728,0 0.0343,0.0343 -0.0343,0.11131 0,0.14564 0.0172,0.0172 0.0557,-0.0172 0.0728,0 0.0172,0.0172 -0.0135,0.0526 0,0.0728 0.0381,0.0571 0.12015,0.0819 0.14564,0.14564 0.0271,0.0676 -0.02,0.14845 0,0.21846 0.0598,0.20932 0.20347,0.33412 0.29129,0.50976 0.0359,0.0718 -0.046,0.22683 0,0.29128 0.19722,0.2761 0.56765,0.64794 0.87386,0.80104 0.1,0.05 0.21298,0.35863 0.29129,0.43693 0.0384,0.0384 0.10726,0.0344 0.14564,0.0728 0.0343,0.0343 -0.0217,0.10222 0,0.14564 0.15153,0.30307 -0.005,-0.0778 0.14564,0.0728 0.0172,0.0172 -0.0172,0.09 0,0.0728 0.18666,-0.0205 0.0268,-0.15706 0.0728,-0.21847 0.27183,-0.36243 0.698,-0.64647 0.94668,-1.0195 0.23836,-0.35753 0.39961,-0.72638 0.58258,-1.09232 0.0307,-0.0614 0.12393,-0.0805 0.14564,-0.14564 0.0153,-0.0461 -0.0153,-0.0996 0,-0.14565 0.009,-0.0262 0.29036,-0.21846 0.29128,-0.21846"
         id="path76-1" />
      <path
         id="rect77-7-4"
         style="fill:#ffffff;stroke-width:0.404678"
         d="m 20.000187,96.464584 v 13.999666 h 15 V 96.464584 Z m 2.000379,1.999878 h 10.999759 v 3.999758 H 22.000566 Z m 0,6.000148 h 3.999724 v 3.99976 h -3.999724 z m 6.999517,0 h 4.000242 v 3.99976 h -4.000242 z" />
      <rect
         style="fill:#ffffff;stroke-width:0.311142"
         id="rect78-0-2"
         width="2.9999764"
         height="3"
         x="22.500185"
         y="104.96445" />
    </g>
  </g>
</svg>
