<?xml version="1.0" encoding="UTF-8" standalone="no"?>
<!-- Created with Inkscape (http://www.inkscape.org/) -->

<svg
   width="210mm"
   height="297mm"
   viewBox="0 0 210 297"
   version="1.1"
   id="svg125"
   sodipodi:docname="polarity.svg"
   inkscape:version="1.2.2 (b0a8486541, 2022-12-01)"
   inkscape:export-filename="polarity.png"
   inkscape:export-xdpi="91.440002"
   inkscape:export-ydpi="91.440002"
   xmlns:inkscape="http://www.inkscape.org/namespaces/inkscape"
   xmlns:sodipodi="http://sodipodi.sourceforge.net/DTD/sodipodi-0.dtd"
   xmlns="http://www.w3.org/2000/svg"
   xmlns:svg="http://www.w3.org/2000/svg">
  <sodipodi:namedview
     id="namedview127"
     pagecolor="#ffffff"
     bordercolor="#666666"
     borderopacity="1.0"
     inkscape:showpageshadow="2"
     inkscape:pageopacity="0.0"
     inkscape:pagecheckerboard="0"
     inkscape:deskcolor="#d1d1d1"
     inkscape:document-units="mm"
     showgrid="false"
     inkscape:zoom="0.914906"
     inkscape:cx="367.79735"
     inkscape:cy="560.71334"
     inkscape:window-width="2560"
     inkscape:window-height="1355"
     inkscape:window-x="0"
     inkscape:window-y="27"
     inkscape:window-maximized="1"
     inkscape:current-layer="layer2" />
  <defs
     id="defs122" />
  <g
     inkscape:groupmode="layer"
     id="layer2"
     inkscape:label="Back"
     style="display:none">
    <rect
       style="fill:#000000;stroke-width:0.264583"
       id="rect236"
       width="147.19864"
       height="132.73904"
       x="10.121716"
       y="11.567667" />
  </g>
  <g
     inkscape:label="Ebene 1"
     inkscape:groupmode="layer"
     id="layer1">
    <path
       id="path181"
       style="fill:#ffffff;stroke-width:0.307076"
       d="M 75.000073 50.000049 A 25 25 0 0 0 50.000049 75.000073 A 25 25 0 0 0 75.000073 100.0001 A 25 25 0 0 0 100.0001 75.000073 A 25 25 0 0 0 75.000073 50.000049 z M 75.000073 58.000077 A 17 17 0 0 1 92.000069 75.000073 A 17 17 0 0 1 75.000073 92.000069 A 17 17 0 0 1 58.000077 75.000073 A 17 17 0 0 1 75.000073 58.000077 z " />
  </g>
  <g
     inkscape:groupmode="layer"
     id="layer4"
     inkscape:label="Balken">
    <rect
       style="fill:#ffffff;stroke-width:0.236358"
       id="rect1568"
       width="60"
       height="8"
       x="-30.181293"
       y="102.06586"
       transform="rotate(-45.097933)" />
  </g>
</svg>
