<?xml version="1.0" encoding="UTF-8" standalone="no"?>
<!-- Created with Inkscape (http://www.inkscape.org/) -->

<svg
   width="100.00038mm"
   height="73.999992mm"
   viewBox="0 0 100.00038 73.999992"
   version="1.1"
   id="svg1"
   inkscape:version="1.3.2 (091e20e, 2023-11-25, custom)"
   sodipodi:docname="rec-page.svg"
   inkscape:export-filename="rec-page.png"
   inkscape:export-xdpi="60.959999"
   inkscape:export-ydpi="60.959999"
   xmlns:inkscape="http://www.inkscape.org/namespaces/inkscape"
   xmlns:sodipodi="http://sodipodi.sourceforge.net/DTD/sodipodi-0.dtd"
   xmlns="http://www.w3.org/2000/svg"
   xmlns:svg="http://www.w3.org/2000/svg">
  <sodipodi:namedview
     id="namedview1"
     pagecolor="#599697"
     bordercolor="#000000"
     borderopacity="0.25"
     inkscape:showpageshadow="2"
     inkscape:pageopacity="0.0"
     inkscape:pagecheckerboard="0"
     inkscape:deskcolor="#d1d1d1"
     inkscape:document-units="mm"
     inkscape:zoom="1.95"
     inkscape:cx="252.82051"
     inkscape:cy="161.79487"
     inkscape:window-width="2400"
     inkscape:window-height="1411"
     inkscape:window-x="2391"
     inkscape:window-y="-9"
     inkscape:window-maximized="1"
     inkscape:current-layer="layer1" />
  <defs
     id="defs1" />
  <g
     inkscape:label="Ebene 1"
     inkscape:groupmode="layer"
     id="layer1"
     transform="translate(-19.999812,-40.000003)">
    <g
       id="g2"
       transform="translate(-0.0399765)">
      <path
         id="rect1-3-5"
         style="fill:#ffffff;stroke-width:0.295391"
         d="M 119.99962,54 V 40 H 39.999827 v 14 z m -2.00038,-2.799855 H 41.999701 v -8.40029 h 75.999539 z" />
      <path
         id="path1"
         style="fill:#ffffff;stroke-width:0.312126"
         d="m 28.999779,40.000003 a 7,7 0 0 0 -7.000089,7.00009 7,7 0 0 0 7.000089,7.000089 7,7 0 0 0 7.00009,-7.000089 7,7 0 0 0 -7.00009,-7.00009 z m 0,1.999878 a 5,5 0 0 1 5.000212,5.000212 5,5 0 0 1 -5.000212,4.999694 5,5 0 0 1 -5.000211,-4.999694 5,5 0 0 1 5.000211,-5.000212 z" />
      <rect
         style="fill:#ffffff;stroke-width:0.274427"
         id="rect2"
         width="36"
         height="6"
         x="43.999813"
         y="44.000004" />
    </g>
    <g
       id="g4"
       transform="translate(0.03998,6.4765783)">
      <path
         id="rect1-3-5-01"
         style="fill:#ffffff;stroke-width:0.295391"
         d="m 119.91966,87.486752 v -14 H 39.919874 v 14 z m -2.00038,-2.799855 H 41.919748 v -8.40029 h 75.999532 z" />
      <path
         id="path1-0"
         style="fill:#ffffff;stroke-width:0.312126"
         d="m 28.919826,73.486755 a 7,7 0 0 0 -7.000089,7.00009 7,7 0 0 0 7.000089,7.000089 7,7 0 0 0 7.00009,-7.000089 7,7 0 0 0 -7.00009,-7.00009 z m 0,1.999878 a 5,5 0 0 1 5.000212,5.000212 5,5 0 0 1 -5.000212,4.999694 5,5 0 0 1 -5.000211,-4.999694 5,5 0 0 1 5.000211,-5.000212 z" />
      <rect
         style="fill:#ffffff;stroke-width:0.329424"
         id="rect2-4"
         width="51.875"
         height="6"
         x="43.919857"
         y="77.486755" />
    </g>
    <g
       id="g5"
       transform="translate(-0.034648,9.090812)">
      <path
         id="rect1-3-5-6"
         style="fill:#ffffff;stroke-width:0.295391"
         d="M 119.99429,104.85427 V 90.854273 H 39.9945 v 13.999997 z m -2.00038,-2.79985 H 41.994374 v -8.400292 h 75.999536 z" />
      <path
         id="path1-9"
         style="fill:#ffffff;stroke-width:0.312126"
         d="m 28.994452,90.854276 a 7,7 0 0 0 -7.000089,7.00009 7,7 0 0 0 7.000089,7.000094 7,7 0 0 0 7.00009,-7.000094 7,7 0 0 0 -7.00009,-7.00009 z m 0,1.999878 a 5,5 0 0 1 5.000212,5.000212 5,5 0 0 1 -5.000212,4.999694 5,5 0 0 1 -5.000211,-4.999694 5,5 0 0 1 5.000211,-5.000212 z" />
      <rect
         style="fill:#ffffff;stroke-width:0.305739"
         id="rect2-96"
         width="44.683762"
         height="6"
         x="43.994488"
         y="94.854271" />
    </g>
    <g
       id="g3"
       transform="translate(-0.04002709,2.9817547)">
      <path
         id="rect1-3-5-0"
         style="fill:#ffffff;stroke-width:0.295391"
         d="m 119.9996,71.000003 v -14 H 39.999812 v 14 z m -2.00038,-2.799855 H 41.999686 v -8.40029 h 75.999534 z" />
      <rect
         style="fill:#ffffff;stroke-width:0.240823"
         id="rect2-9"
         width="27.723291"
         height="6"
         x="43.668842"
         y="61.069019" />
      <circle
         style="fill:#ffffff;stroke-width:0.281459"
         id="path2"
         cx="28.999811"
         cy="64"
         r="7" />
    </g>
  </g>
</svg>
